<svg width="211" height="110" viewBox="0 0 1686 882" fill="none" xmlns="http://www.w3.org/2000/svg">
<g clip-path="url(#clip0_2_9)">
<path d="M334.12 126.51C226.968 157.533 164.937 269.819 196.174 377.713C213.858 438.79 242.994 461.357 277.018 491.903C299.707 512.274 323.939 536.217 344.768 574.656L563.262 511.398C560.003 466.807 567.702 433.049 576.061 403.42C588.508 359.312 601.195 325.185 583.904 265.459C552.645 157.492 441.277 95.4888 334.122 126.512L334.12 126.51ZM251.635 335.95L290.282 354.411L356.133 385.851L384.183 328.223L390.274 315.669L402.261 322.853L455.637 354.868L495.564 294.752L518.225 260.627L519.175 301.834L523.564 494.734L497.782 495.174L494.341 343.479L470.335 379.626L463.554 389.794L453.074 383.486L401.18 352.406L373.691 408.874L368.129 420.32L356.681 414.84L317.991 396.393L395.356 525.188L373.314 538.551L273.799 372.871L251.634 335.947L251.635 335.95ZM359.745 597.429L375.683 652.477L551.892 541.799L359.744 597.429L359.745 597.429ZM569.629 561.417L383.226 678.536L394.634 717.94L581.049 600.862L569.629 561.415L569.629 561.417ZM588.57 626.839L443.619 717.903L601.685 672.139L588.57 626.839ZM433.489 747.945L441.446 775.43L591.369 732.024L583.413 704.544L433.493 747.949L433.489 747.945Z" fill="white"/>
</g>
<path d="M760.437 581.656V400.771H837.07V619H797.781C785.852 619 776.645 615.758 770.162 609.275C763.679 602.792 760.437 593.585 760.437 581.656ZM694.696 621.723C676.543 621.723 661.372 617.703 649.183 609.664C636.994 601.365 627.788 590.084 621.564 575.821C615.34 561.558 612.228 545.349 612.228 527.196V400.771H688.083V517.471C688.083 530.178 691.325 540.033 697.808 547.035C704.551 554.037 713.368 557.538 724.26 557.538C732.04 557.538 738.523 555.723 743.71 552.092C749.156 548.202 753.305 542.886 756.158 536.143C759.011 529.4 760.437 521.88 760.437 513.581L770.162 524.862C769.384 547.424 765.494 565.837 758.492 580.1C751.749 594.363 742.802 604.866 731.651 611.609C720.759 618.352 708.441 621.723 694.696 621.723ZM1013.5 606.552V400.771H1089.35V606.552C1089.35 621.075 1087.15 635.338 1082.74 649.342C1078.59 663.605 1071.85 676.442 1062.51 687.853C1053.44 699.264 1041.38 708.34 1026.34 715.083C1011.55 722.085 993.401 725.586 971.877 725.586C954.501 725.586 938.034 722.733 922.474 717.028C907.173 711.323 893.947 703.024 882.796 692.132C871.644 681.24 863.605 668.014 858.678 652.454L924.03 630.67C927.66 638.45 933.106 645.193 940.368 650.898C947.888 656.603 957.224 659.456 968.376 659.456C983.936 659.456 995.346 654.529 1002.61 644.674C1009.87 634.819 1013.5 622.112 1013.5 606.552ZM1020.89 515.526C1020.89 535.754 1018.95 552.481 1015.06 565.707C1011.17 578.933 1005.98 589.306 999.496 596.827C993.012 604.348 985.621 609.664 977.323 612.776C969.283 615.888 960.855 617.444 952.038 617.444C935.181 617.444 920.269 613.424 907.303 605.385C894.595 597.346 884.611 586.194 877.35 571.931C870.348 557.408 866.847 540.681 866.847 521.75V400.771H941.924V513.192C941.924 525.899 945.165 535.754 951.649 542.756C958.132 549.758 966.82 553.259 977.712 553.259C985.492 553.259 991.975 551.444 997.162 547.813C1002.61 543.923 1006.63 538.736 1009.22 532.253C1012.07 525.51 1013.5 517.86 1013.5 509.302L1020.89 515.526ZM1286.95 461.066L1197.1 555.593H1290.07V619H1113.07V558.705L1199.82 464.178H1113.85V400.771H1286.95V461.066Z" fill="white"/>
<defs>
<clipPath id="clip0_2_9">
<rect width="705.43" height="713.48" fill="white" transform="translate(0 196.179) rotate(-16.1468)"/>
</clipPath>
</defs>
</svg>
